<?xml version="1.0" encoding="UTF-8" standalone="no"?>
<svg width="196.5px" height="154.5px" viewBox="0 0 196.5 154.5px" version="1.1" xmlns="http://www.w3.org/2000/svg" xmlns:xlink="http://www.w3.org/1999/xlink" xmlns:sketch="http://www.bohemiancoding.com/sketch/ns">
    <!-- Generator: Sketch 3.4.1 (15681) - http://www.bohemiancoding.com/sketch -->
    <title>panda</title>
    <desc>Created with Sketch.</desc>
    <defs></defs>
    <g id="Page-1" stroke="none" stroke-width="1" fill="none" fill-rule="evenodd" sketch:type="MSPage">
        <g id="panda" sketch:type="MSLayerGroup" transform="translate(-6.588755, -26.444360)">
            <ellipse id="Oval" sketch:type="MSShapeGroup" transform="translate(60.421646, 70.382187) rotate(40.677112) translate(-60.421646, -70.382187) " cx="60.4216465" cy="70.3821866" rx="1.90101312" ry="2.60401797"></ellipse>
            <path d="M72.9422877,94.444 C80.2012877,94.444 86.8472877,92.281 91.9762877,88.711 C98.2812877,84.322 102.289288,77.803 102.289288,70.532 C102.289288,67.5 101.586288,64.601 100.317288,61.93 C99.3742877,62.242 98.3692877,62.417 97.3212877,62.417 L87.7792877,52.875 C87.7792877,51.912 87.9252877,50.984 88.1902877,50.108 C83.7432877,47.896 78.5232877,46.62 72.9422877,46.62 C66.8002877,46.62 61.0952877,48.168 56.3772877,50.807 C56.5252877,51.474 56.6082877,52.164 56.6082877,52.876 L47.0662877,62.418 C46.4982877,62.418 45.9452877,62.359 45.4052877,62.264 C44.2352877,64.842 43.5952877,67.627 43.5952877,70.533 C43.5952877,77.804 47.6032877,84.323 53.9082877,88.712 C59.0372877,92.281 65.6842877,94.444 72.9422877,94.444 L72.9422877,94.444 Z M82.0052877,64.412 C84.4112877,62.344 88.6592877,63.34 91.4932877,66.637 C94.3272877,69.934 94.6742877,74.284 92.2672877,76.352 C89.8602877,78.42 85.6132877,77.424 82.7792877,74.127 C79.9462877,70.83 79.5992877,66.48 82.0052877,64.412 L82.0052877,64.412 Z M72.8702877,73.152 C74.5612877,73.152 75.9312877,73.995 75.9312877,75.034 C75.9312877,76.073 74.5602877,76.916 72.8702877,76.916 C71.1792877,76.916 69.8092877,76.073 69.8092877,75.034 C69.8092877,73.995 71.1792877,73.152 72.8702877,73.152 L72.8702877,73.152 Z M67.8742877,77.936 C68.2392877,84.446 78.0332877,84.434 78.3972877,77.936 C78.4652877,76.713 80.3742877,76.709 80.3052877,77.936 C79.8032877,86.897 66.4672877,86.897 65.9652877,77.936 C65.8962877,76.707 67.8052877,76.715 67.8742877,77.936 L67.8742877,77.936 Z M54.7902877,66.637 C57.6242877,63.34 61.8722877,62.344 64.2782877,64.412 C66.6842877,66.48 66.3382877,70.83 63.5042877,74.127 C60.6702877,77.424 56.4222877,78.42 54.0162877,76.352 C51.6092877,74.284 51.9562877,69.935 54.7902877,66.637 L54.7902877,66.637 Z" id="Shape" sketch:type="MSShapeGroup"></path>
            <ellipse id="Oval" sketch:type="MSShapeGroup" transform="translate(85.861508, 70.383022) rotate(49.322888) translate(-85.861508, -70.383022) " cx="85.8615077" cy="70.383022" rx="2.60401797" ry="1.90101312"></ellipse>
            <path d="M91.3892877,115.004 C87.8902877,117.973 78.7722877,113.113 83.5432877,107.282 C88.3142877,101.451 83.4372877,98.5 83.4372877,98.5 L74.5332877,98.5 L71.3522877,98.5 L62.4462877,98.5 C62.4462877,98.5 57.5692877,101.464 62.3402877,107.296 C67.1112877,113.127 57.9932877,117.903 54.4942877,114.934 C53.1092877,113.759 50.6482877,111.801 48.8082877,108.856 C48.5982877,109.699 48.4272877,110.58 48.3022877,111.441 L61.1552877,127.643 C63.0782877,127.844 65.0212877,127.906 66.9052877,127.948 C71.4642877,128.049 76.0542877,128.078 80.6112877,127.904 C82.0662877,127.848 83.5852877,127.781 85.1002877,127.616 L97.5542877,111.929 C97.4312877,110.93 97.2492877,109.947 97.0132877,108.981 C95.1822877,111.868 92.7592877,113.842 91.3892877,115.004 L91.3892877,115.004 Z" id="Shape" sketch:type="MSShapeGroup"></path>
            <ellipse id="Oval" fill="#000000" sketch:type="MSShapeGroup" cx="72.8702877" cy="75.034" rx="3.061" ry="1.882"></ellipse>
            <path d="M78.3972877,77.936 C78.2221153,81.0631161 75.5769385,80.7183288 73.1357878,80.8371862 C70.5043424,80.9653089 68.063634,81.3131089 67.8742877,77.936 C67.8062877,76.715 65.8972877,76.707 65.9662877,77.936 C66.2299925,82.6532106 69.503428,82.8817919 73.1357878,82.6330131 C76.4043725,82.4091491 80.0675189,82.1803157 80.3052877,77.936 C80.3742877,76.709 78.4652877,76.713 78.3972877,77.936 Z" id="Shape" fill="#000000" sketch:type="MSShapeGroup"></path>
            <text id="[" sketch:type="MSTextLayer" font-family="Helvetica Neue" font-size="110" font-weight="420" fill="#000000">
                <tspan x="0" y="107.44436">[</tspan>
            </text>
            <path d="M63.5169876,74.5108625 C66.6414726,70.87592 67.0240401,66.080045 64.3703226,63.800075 C61.7166051,61.520105 57.0342876,62.618195 53.9098026,66.2531375 C50.7853176,69.88808 50.4027501,74.683955 53.0564676,76.963925 C55.7090826,79.243895 60.3925026,78.145805 63.5169876,74.5108625 L63.5169876,74.5108625 Z M58.5259701,69.0160025 C59.5601151,67.813175 61.1091276,67.4504525 61.9867176,68.2045625 C62.8643076,68.9586725 62.7375201,70.54517 61.7044776,71.7479975 C60.6703326,72.950825 59.1213201,73.3135475 58.2437301,72.5594375 C57.3661401,71.8053275 57.4929276,70.21883 58.5259701,69.0160025 L58.5259701,69.0160025 Z" id="Shape" fill="#000000" sketch:type="MSShapeGroup"></path>
            <path d="M92.2298556,76.963925 C94.8824706,74.683955 94.5010056,69.88808 91.3765206,66.2531375 C88.2520356,62.618195 83.5686156,61.520105 80.9160006,63.800075 C78.2633856,66.080045 78.6448506,70.87592 81.7693356,74.5108625 C84.8938206,78.145805 89.5772406,79.243895 92.2298556,76.963925 L92.2298556,76.963925 Z M86.7592506,69.0160025 C87.7933956,70.21883 87.9190806,71.8053275 87.0414906,72.5594375 C86.1639006,73.3135475 84.6137856,72.950825 83.5807431,71.7479975 C82.5465981,70.54517 82.4198106,68.9586725 83.2985031,68.2045625 C84.1760931,67.4504525 85.7262081,67.813175 86.7592506,69.0160025 Z" id="Shape" fill="#000000" sketch:type="MSShapeGroup"></path>
            <path d="M108.268288,115.5 L103.297288,115.5 L98.4032877,110.785 C98.2362877,109.679 97.9972877,108.866 97.6982877,107.801 C100.048288,103.349 100.766288,96.915 95.1052877,88.649 C100.721288,83.978 104.198288,77.585 104.198288,70.497 C104.198288,67.189 103.433288,64.045 102.055288,61.136 C104.926288,59.491 106.864288,56.412 106.864288,52.867 C106.864288,47.597 102.592288,43.329 97.3222877,43.329 C93.6892877,43.329 90.5322877,45.362 88.9202877,48.349 C84.2412877,46.04 78.7782877,44.71 72.9432877,44.71 C66.6032877,44.71 60.7022877,46.282 55.7692877,48.973 C54.2772877,45.65 50.9462877,43.333 47.0672877,43.333 C41.7972877,43.333 37.5252877,47.605 37.5252877,52.875 C37.5252877,56.903 40.0252877,60.341 43.5542877,61.741 C42.3472877,64.486 41.6862877,67.446 41.6862877,70.532 C41.6862877,77.62 45.1632877,84.048 50.7792877,88.719 C45.1752877,96.985 45.8242877,103.369 48.1172877,107.821 C47.7112877,109.139 47.3942877,110.141 47.1952877,111.494 L42.9322877,115.5 L37.9612877,115.5 C36.9912877,115.5 36.3682877,116.812 36.8182877,117.671 L41.7482877,127.232 C42.1172877,127.937 42.8502877,128.448 43.6462877,128.442 L60.7002877,128.492 C60.9332877,128.519 61.1652877,128.563 61.3962877,128.587 C66.9272877,129.159 72.5922877,129.002 78.1432877,128.914 C80.5662877,128.875 83.1602877,128.848 85.6932877,128.523 L102.583288,128.51 C103.379288,128.516 104.112288,128.077 104.481288,127.372 L109.411288,117.67 C109.861288,116.811 109.238288,115.5 108.268288,115.5 L108.268288,115.5 Z M43.5952877,70.532 C43.5952877,67.627 44.2362877,64.842 45.4052877,62.263 C45.9462877,62.358 46.4992877,62.417 47.0662877,62.417 L56.6082877,52.875 C56.6082877,52.164 56.5242877,51.473 56.3772877,50.806 C61.0952877,48.167 66.8002877,46.619 72.9422877,46.619 C78.5222877,46.619 83.7432877,47.895 88.1902877,50.107 C87.9252877,50.983 87.7792877,51.911 87.7792877,52.874 L97.3212877,62.416 C98.3692877,62.416 99.3742877,62.241 100.317288,61.929 C101.586288,64.6 102.289288,67.499 102.289288,70.531 C102.289288,77.802 98.2812877,84.321 91.9762877,88.71 C86.8472877,92.28 80.2012877,94.443 72.9422877,94.443 C65.6832877,94.443 59.0372877,92.28 53.9082877,88.71 C47.6032877,84.322 43.5952877,77.803 43.5952877,70.532 L43.5952877,70.532 Z M85.1022877,127.617 C83.5872877,127.782 82.0672877,127.851 80.6132877,127.907 C76.0562877,128.082 71.4662877,128.055 66.9072877,127.954 C65.0232877,127.912 63.0792877,127.857 61.1572877,127.655 L48.3042877,111.465 C48.4282877,110.604 48.6002877,109.747 48.8102877,108.904 C50.6502877,111.848 53.1112877,113.855 54.4962877,115.03 C57.9952877,117.999 67.1132877,113.126 62.3422877,107.295 C57.5702877,101.464 62.4472877,98.5 62.4472877,98.5 L71.3532877,98.5 L74.5342877,98.5 L83.4382877,98.5 C83.4382877,98.5 88.3152877,101.451 83.5442877,107.282 C78.7732877,113.113 87.8912877,117.875 91.3902877,114.907 C92.7602877,113.744 95.1832877,111.82 97.0172877,108.932 C97.2532877,109.898 97.4352877,110.906 97.5582877,111.905 L85.1022877,127.617 L85.1022877,127.617 Z" id="Shape" fill="#000000" sketch:type="MSShapeGroup"></path>
            <text id="]" sketch:type="MSTextLayer" font-family="Helvetica Neue" font-size="110" font-weight="420" fill="#000000">
                <tspan x="113" y="107.44436">]</tspan>
            </text>
        </g>
    </g>
</svg>